HIERARCHY
ROOT joint_Root
{
	OFFSET 0.0 0.0 0.0
	CHANNELS 6 Xposition Yposition Zposition Zrotation Xrotation Yrotation 
	JOINT Hips
	{
		OFFSET -17.1583 93.1646 452.98
		CHANNELS 6 Xposition Yposition Zposition Zrotation Xrotation Yrotation 
		JOINT Spine
		{
			OFFSET 15.7357 0.0 0.0
			CHANNELS 6 Xposition Yposition Zposition Zrotation Xrotation Yrotation 
			JOINT Chest
			{
				OFFSET 8.98455 -0.406207 0.0
				CHANNELS 6 Xposition Yposition Zposition Zrotation Xrotation Yrotation 
				JOINT Neck
				{
					OFFSET 16.3773 0.0 0.0
					CHANNELS 6 Xposition Yposition Zposition Zrotation Xrotation Yrotation 
					JOINT Head
					{
						OFFSET 6.45672 0.0 0.0
						CHANNELS 6 Xposition Yposition Zposition Zrotation Xrotation Yrotation 
						End Site
						{
							OFFSET 0.0 0.0 0.0
						}
					}
				}
				JOINT Shoulder_L
				{
					OFFSET 12.9942 -0.242716 4.98039
					CHANNELS 6 Xposition Yposition Zposition Zrotation Xrotation Yrotation 
					JOINT UpperArm_L
					{
						OFFSET 5.34809 0.0 0.0
						CHANNELS 6 Xposition Yposition Zposition Zrotation Xrotation Yrotation 
						JOINT LowerArm_L
						{
							OFFSET 24.3286 1.87007e-05 0.0
							CHANNELS 6 Xposition Yposition Zposition Zrotation Xrotation Yrotation 
							JOINT Hand_L
							{
								OFFSET 22.2916 0.0 0.0
								CHANNELS 6 Xposition Yposition Zposition Zrotation Xrotation Yrotation 
								End Site
								{
									OFFSET 0.0 0.0 0.0
								}
							}
						}
					}
				}
				JOINT Shoulder_R
				{
					OFFSET 12.9945 -0.242716 -4.98039
					CHANNELS 6 Xposition Yposition Zposition Zrotation Xrotation Yrotation 
					JOINT UpperArm_R
					{
						OFFSET -5.34813 0.0 0.0
						CHANNELS 6 Xposition Yposition Zposition Zrotation Xrotation Yrotation 
						JOINT LowerArm_R
						{
							OFFSET -24.3289 0.000322201 0.0
							CHANNELS 6 Xposition Yposition Zposition Zrotation Xrotation Yrotation 
							JOINT Hand_R
							{
								OFFSET -22.2915 -0.000108084 0.0
								CHANNELS 6 Xposition Yposition Zposition Zrotation Xrotation Yrotation 
								End Site
								{
									OFFSET 0.0 0.0 0.0
								}
							}
						}
					}
				}
			}
		}
		JOINT UpperLeg_L
		{
			OFFSET -2.19248 -6.46944 0.0
			CHANNELS 6 Xposition Yposition Zposition Zrotation Xrotation Yrotation 
			JOINT LowerLeg_L
			{
				OFFSET 39.0811 0.0 -1.23785e-05
				CHANNELS 6 Xposition Yposition Zposition Zrotation Xrotation Yrotation 
				JOINT Foot_L
				{
					OFFSET 40.9854 0.0 -1.26872e-05
					CHANNELS 6 Xposition Yposition Zposition Zrotation Xrotation Yrotation 
					JOINT Toes_L
					{
						OFFSET 11.7543 0.0 0.0
						CHANNELS 6 Xposition Yposition Zposition Zrotation Xrotation Yrotation 
						End Site
						{
							OFFSET 0.0 0.0 0.0
						}
					}
				}
			}
		}
		JOINT UpperLeg_R
		{
			OFFSET -2.19251 6.46944 0.0
			CHANNELS 6 Xposition Yposition Zposition Zrotation Xrotation Yrotation 
			JOINT LowerLeg_R
			{
				OFFSET -39.0811 -0.00228153 -0.0401928
				CHANNELS 6 Xposition Yposition Zposition Zrotation Xrotation Yrotation 
				JOINT Foot_R
				{
					OFFSET -40.9854 0.0 0.0
					CHANNELS 6 Xposition Yposition Zposition Zrotation Xrotation Yrotation 
					JOINT Toes_R
					{
						OFFSET -11.7543 0.0 0.0
						CHANNELS 6 Xposition Yposition Zposition Zrotation Xrotation Yrotation 
						End Site
						{
							OFFSET 0.0 0.0 0.0
						}
					}
				}
			}
		}
	}
}
MOTION
Frames:	4
Frame Time:	0.0333333
0.000000 0.000000 0.000000 0.000000 0.000000 -0.000000 1.191580 91.635800 -7.642920 -84.466500 4.815780 163.725000 15.735700 0.000005 -0.000001 39.762400 84.917000 -35.941400 8.984550 -0.406207 -0.000000 -0.981756 -8.104370 7.579520 16.377300 -0.000001 -0.000001 -8.269680 6.883680 -2.091430 6.456720 -0.000001 -0.000000 4.898760 12.223200 -0.830179 12.994200 -0.242716 4.980390 -90.751900 3.307380 -77.184900 5.348090 -0.000007 -0.000001 -65.521600 3.712430 -5.118280 24.328600 0.000019 0.000005 39.966900 3.084170 -86.327800 22.291600 -0.000001 0.000005 37.381700 4.993010 7.463040 12.994500 -0.242716 -4.980390 90.171300 -0.650904 -75.255800 -5.348130 -0.000001 -0.000004 -49.707600 -10.054300 19.288600 -24.328900 0.000322 -0.000009 -0.001044 26.010500 0.000124 -22.291500 -0.000108 -0.000004 18.658700 4.185980 21.522200 -2.192480 -6.469440 -0.000000 -176.498000 -7.989520 10.084100 39.081100 -0.000007 -0.000012 0.027800 -0.051809 28.217300 40.985400 -0.000006 -0.000013 -1.704400 9.528640 -34.831000 11.754300 -0.000000 0.000003 0.001929 0.044082 -14.788600 -2.192510 6.469440 -0.000001 -174.528000 -7.890720 129.921000 -39.081100 -0.002282 -0.040193 -0.063497 0.098466 34.149100 -40.985400 0.000008 0.000006 -11.883000 -1.611750 -76.237100 -11.754300 -0.000006 -0.000006 0.000248 0.163381 -9.946870
0.000000 0.000000 0.000000 0.000000 0.000000 -0.000000 1.210730 90.273900 -19.255900 -85.559100 4.886970 165.894000 15.735700 0.000005 -0.000001 46.206900 84.387300 -42.681000 8.984550 -0.406207 -0.000000 0.603047 -7.986440 7.097970 16.377300 -0.000001 -0.000001 -9.185280 6.851130 -2.177440 6.456720 -0.000001 -0.000000 4.944940 12.112300 -1.330470 12.994200 -0.242716 4.980390 -90.682800 3.152640 -77.772500 5.348090 -0.000007 -0.000001 -68.581500 3.253340 -4.064170 24.328600 0.000019 0.000005 38.437000 6.543050 -81.827600 22.291600 -0.000001 0.000005 30.877200 4.993180 7.448960 12.994500 -0.242716 -4.980390 90.192100 -0.760723 -75.829600 -5.348130 -0.000001 -0.000004 -50.780700 -12.585200 16.954100 -24.328900 0.000322 -0.000009 -0.001038 26.554000 0.000128 -22.291500 -0.000108 -0.000004 19.509500 4.211230 21.143500 -2.192480 -6.469440 -0.000000 -178.834000 -5.008800 9.383900 39.081100 -0.000007 -0.000012 0.040455 -0.044824 42.065100 40.985400 -0.000006 -0.000013 -6.922580 7.720200 -30.640600 11.754300 -0.000000 0.000003 0.001960 0.045198 -14.743400 -2.192510 6.469440 -0.000001 -175.519000 -6.452330 135.344000 -39.081100 -0.002282 -0.040193 -0.077843 0.166067 26.043600 -40.985400 0.000008 0.000006 -14.146300 0.701305 -79.403100 -11.754300 -0.000006 -0.000006 0.000383 0.160950 -10.045600
0.000000 0.000000 0.000000 0.000000 0.000000 -0.000000 1.468390 88.093900 -30.540400 -85.089200 5.979790 166.787000 15.735700 0.000005 -0.000001 58.303600 84.447600 -54.747300 8.984550 -0.406207 -0.000000 1.889650 -6.013390 7.210540 16.377300 -0.000001 -0.000001 -10.232700 6.552090 -1.911380 6.456720 -0.000001 -0.000000 3.996560 11.361800 -1.614250 12.994200 -0.242716 4.980390 -90.932700 4.101360 -77.177500 5.348090 -0.000007 -0.000001 -69.736300 4.511400 -2.325400 24.328600 0.000019 0.000005 30.393900 9.921130 -73.626600 22.291600 -0.000001 0.000005 19.428000 5.067050 5.849230 12.994500 -0.242716 -4.980390 90.113900 -0.462724 -76.172800 -5.348130 -0.000001 -0.000004 -53.179400 -13.608600 12.663900 -24.328900 0.000322 -0.000009 -0.001044 25.371700 0.000121 -22.291500 -0.000108 -0.000004 17.297900 4.326770 19.371400 -2.192480 -6.469440 -0.000000 -177.970000 -7.129780 4.412820 39.081100 -0.000007 -0.000012 0.193071 -0.113436 59.563300 40.985400 -0.000006 -0.000013 -7.367320 5.413020 -30.164000 11.754300 -0.000000 0.000003 0.001836 0.040918 -14.916900 -2.192510 6.469440 -0.000001 -173.829000 -5.177580 135.947000 -39.081100 -0.002282 -0.040193 -0.070377 0.123075 30.906300 -40.985400 0.000008 0.000006 -12.577600 -2.203760 -76.906300 -11.754300 -0.000006 -0.000006 0.002487 0.082003 -13.247600
0.000000 0.000000 0.000000 0.000000 0.000000 -0.000000 2.005320 85.152500 -41.163900 -83.995200 6.085290 167.236000 15.735700 0.000005 -0.000001 71.903900 84.665600 -68.164900 8.984550 -0.406207 -0.000000 2.503960 -3.482580 7.548630 16.377300 -0.000001 -0.000001 -9.949810 5.704110 -1.759170 6.456720 -0.000001 -0.000000 2.466760 9.761520 -1.394280 12.994200 -0.242716 4.980390 -91.442700 5.859630 -76.142900 5.348090 -0.000007 -0.000001 -69.070300 6.348050 0.270323 24.328600 0.000019 0.000005 28.462800 15.660700 -63.533000 22.291600 -0.000001 0.000005 6.887510 5.110150 4.870860 12.994500 -0.242716 -4.980390 89.840400 0.669821 -76.596700 -5.348130 -0.000001 -0.000004 -55.187700 -11.430900 8.302460 -24.328900 0.000322 -0.000009 -0.001309 20.947900 0.000096 -22.291500 -0.000108 -0.000004 11.335900 4.607220 14.763600 -2.192480 -6.469440 -0.000000 -174.736000 -10.225800 -4.575210 39.081100 -0.000007 -0.000012 0.544471 -0.098863 79.708100 40.985400 -0.000006 -0.000013 -6.217430 -3.163370 -32.340900 11.754300 -0.000000 0.000003 0.002055 0.048858 -14.594900 -2.192510 6.469440 -0.000001 -169.354000 -2.549760 132.359000 -39.081100 -0.002282 -0.040193 0.310860 -0.278708 47.822000 -40.985400 0.000008 0.000006 3.303590 -3.592100 -70.806300 -11.754300 -0.000006 -0.000006 -0.002643 0.204159 -8.289580
